{"title":"Un-freedom (2015) Banned in India - Web Rip - XviD - [1CD] - Tea","uid":12010958,"size":737983318,"categoryP":"video","categoryS":"movies","magnet":"?xt=urn:btih:7c8565207c2aa7807e7fbc1db0f5d5070a6a908e&amp;dn=Un-freedom+%282015%29+Banned+in+India+-+Web+Rip+-+XviD+-+%5B1CD%5D+-+Tea&amp;tr=udp%3A%2F%2Ftracker.openbittorrent.com%3A80&amp;tr=udp%3A%2F%2Fopen.demonii.com%3A1337&amp;tr=udp%3A%2F%2Ftracker.coppersurfer.tk%3A6969&amp;tr=udp%3A%2F%2Fexodus.desync.com%3A6969","seeders":14,"leechers":5,"uploader":"SS132203","files":21,"time":1434117982,"description":"Un-freedom (2015) Banned in India - Web Rip - XviD - [1CD] - Team IcTv Exclusive\n &lt;a href=&quot;\nhttp://imgsparrow.co/image/47&quot; rel=&quot;nofollow&quot; target=&quot;_NEW&quot;&gt;\nhttp://imgsparrow.co/image/47&lt;/a&gt;\n &lt;a href=&quot;\nhttp://imgsparrow.co/image/k2&quot; rel=&quot;nofollow&quot; target=&quot;_NEW&quot;&gt;\nhttp://imgsparrow.co/image/k2&lt;/a&gt;\n\nAll Credit Goes To Intellect Clever &amp; IcTv\nSample Within Torrent\n\nMovie Info\nYear : 2015\nCast : Victor Banerjee, Adil Hussain, Bhanu Uday\nVideo: XviD\nAudio : MP3\nGenre : Crime, Drama, Romance\nSubtitles : NONE\nLanguage : HIndi/English :\nRuntime : 1hr 43min xx\nSource : Team IcTv \n\nFormat                      : AVI\nFormat/Info                 : Audio Video Interleave\nFile size                   : 695 MiB\nDuration                    : 1h 43mn\nOverall bit rate            : 940 Kbps\n\nVideo\nID                          : 0\nFormat                      : MPEG-4 Visual\nFormat profile              : Advanced Simple@L5\nFormat settings, BVOP       : 2\nFormat settings, QPel       : No\nFormat settings, GMC        : No warppoints\nFormat settings, Matrix     : Default (H.263)\nCodec ID                    : XVID\nCodec ID/Hint               : XviD\nDuration                    : 1h 43mn\nBit rate                    : 806 Kbps\nWidth                       : 640 pixels\nHeight                      : 272 pixels\nDisplay aspect ratio        : 2.35:1\nFrame rate                  : 23.976 fps\nColor space                 : YUV\nChroma subsampling          : 4:2:0\nBit depth                   : 8 bits\nScan type                   : Progressive\nCompression mode            : Lossy\nBits/(Pixel*Frame)          : 0.193\nStream size                 : 596 MiB (86%)\nWriting library             : XviD 1.2.1 (UTC 2008-12-04)\n\nAudio\nID                          : 1\nFormat                      : MPEG Audio\nFormat version              : Version 1\nFormat profile              : Layer 3\nMode                        : Joint stereo\nMode extension              : MS Stereo\nCodec ID                    : 55\nCodec ID/Hint               : MP3\nDuration                    : 1h 43mn\nBit rate mode               : Constant\nBit rate                    : 128 Kbps\nChannel(s)                  : 2 channels\nSampling rate               : 48.0 KHz\nCompression mode            : Lossy\nStream size                 : 94.7 MiB (14%)\n\nScreens : - \n &lt;a href=&quot;\nhttp://imgsparrow.co/image/k3&quot; rel=&quot;nofollow&quot; target=&quot;_NEW&quot;&gt;\nhttp://imgsparrow.co/image/k3&lt;/a&gt; &lt;a href=&quot;\nhttp://imgsparrow.co/image/ki&quot; rel=&quot;nofollow&quot; target=&quot;_NEW&quot;&gt;\nhttp://imgsparrow.co/image/ki&lt;/a&gt; &lt;a href=&quot;\nhttp://imgsparrow.co/image/kV&quot; rel=&quot;nofollow&quot; target=&quot;_NEW&quot;&gt;\nhttp://imgsparrow.co/image/kV&lt;/a&gt; &lt;a href=&quot;\nhttp://imgsparrow.co/image/kl&quot; rel=&quot;nofollow&quot; target=&quot;_NEW&quot;&gt;\nhttp://imgsparrow.co/image/kl&lt;/a&gt; &lt;a href=&quot;\nhttp://imgsparrow.co/image/ks&quot; rel=&quot;nofollow&quot; target=&quot;_NEW&quot;&gt;\nhttp://imgsparrow.co/image/ks&lt;/a&gt; &lt;a href=&quot;\nhttp://imgsparrow.co/image/kS&quot; rel=&quot;nofollow&quot; target=&quot;_NEW&quot;&gt;\nhttp://imgsparrow.co/image/kS&lt;/a&gt; &lt;a href=&quot;\nhttp://imgsparrow.co/image/kR&quot; rel=&quot;nofollow&quot; target=&quot;_NEW&quot;&gt;\nhttp://imgsparrow.co/image/kR&lt;/a&gt; &lt;a href=&quot;\nhttp://imgsparrow.co/image/kv&quot; rel=&quot;nofollow&quot; target=&quot;_NEW&quot;&gt;\nhttp://imgsparrow.co/image/kv&lt;/a&gt; &lt;a href=&quot;\nhttp://imgsparrow.co/image/kx&quot; rel=&quot;nofollow&quot; target=&quot;_NEW&quot;&gt;\nhttp://imgsparrow.co/image/kx&lt;/a&gt; &lt;a href=&quot;\nhttp://imgsparrow.co/image/kC&quot; rel=&quot;nofollow&quot; target=&quot;_NEW&quot;&gt;\nhttp://imgsparrow.co/image/kC&lt;/a&gt;\n &lt;a href=&quot;\nhttp://imgsparrow.co/image/N2&quot; rel=&quot;nofollow&quot; target=&quot;_NEW&quot;&gt;\nhttp://imgsparrow.co/image/N2&lt;/a&gt;","torrent":{"xt":"urn:btih:7c8565207c2aa7807e7fbc1db0f5d5070a6a908e","amp;dn":"Un-freedom+%282015%29+Banned+in+India+-+Web+Rip+-+XviD+-+%5B1CD%5D+-+Tea","amp;tr":["udp%3A%2F%2Ftracker.openbittorrent.com%3A80","udp%3A%2F%2Fopen.demonii.com%3A1337","udp%3A%2F%2Ftracker.coppersurfer.tk%3A6969","udp%3A%2F%2Fexodus.desync.com%3A6969"],"infoHash":"7c8565207c2aa7807e7fbc1db0f5d5070a6a908e","infoHashBuffer":{"type":"Buffer","data":[124,133,101,32,124,42,167,128,126,127,188,29,176,245,213,7,10,106,144,142]},"announce":[],"urlList":[]}}